#!OML:ASF H:\Male1\Project 1\Capture day 1\Session 1\Male1.ASF
:FULLY-SPECIFIED
:DEGREES
576
root 47.9723 15.4047 -0.943069 -1083.88 -72.0057 1084.25
lowerback 6.46342 0.380079 2.41451
upperback 5.20756 0.501672 -0.814761
thorax 1.78122 0.282282 -2.21877
lowerneck -3.69211 11.7887 12.1999
upperneck 33.4454 16.7479 -8.15737
head 13.7785 7.70552 -3.06297
rclavicle -5.25288e-014 1.28216e-014
rhumerus -35.3659 -4.42815 -85.209
rradius 31.0789
rwrist -19.7368
rhand -19.1006 0.00866887
rfingers 7.12502
rthumb 7.20804 -29.8486
lclavicle -5.25288e-014 1.28216e-014
lhumerus -37.3855 -13.8539 91.849
lradius 35.2659
lwrist 5.54082
lhand -18.7558 14.2894
lfingers 7.12502
lthumb 7.54089 44.135
rfemur -5.48862 16.0761 22.6887
rtibia 27.1346
rfoot -27.2405 -24.9957
rtoes -23.4449
lfemur -11.2882 -20.8316 -19.6228
ltibia 28.9672
lfoot -20.4021 8.19206
ltoes -17.7496
577
root 47.979 15.4112 -0.988469 -1083.27 -70.339 1083.85
lowerback 6.49856 0.422794 2.55856
upperback 5.1583 0.570692 -0.796468
thorax 1.7165 0.321073 -2.2845
lowerneck -3.29004 11.6372 12.6245
upperneck 33.096 16.6363 -8.57327
head 13.6157 7.6964 -3.33099
rclavicle 7.25564e-014 -2.00773e-014
rhumerus -35.6916 -4.37238 -85.2238
rradius 31.6913
rwrist -20.5653
rhand -18.4848 -2.94447
rfingers 7.12502
rthumb 7.80239 -32.7805
lclavicle 7.25564e-014 -2.00773e-014
lhumerus -37.3936 -14.6426 92.2247
lradius 35.58
lwrist 5.29387
lhand -18.7348 14.509
lfingers 7.12502
lthumb 7.56112 44.3539
rfemur -5.23027 16.0899 22.9482
rtibia 26.4913
rfoot -27.8992 -26.221
rtoes -22.5363
lfemur -12.4451 -20.5764 -19.257
ltibia 29.8834
lfoot -20.2902 7.31973
ltoes -17.2804
578
root 47.9773 15.4221 -1.02517 -1083.31 -68.957 1083.97
lowerback 6.56562 0.606837 2.63461
upperback 5.25716 0.818918 -0.844186
thorax 1.79926 0.450246 -2.38849
lowerneck -2.9981 11.5976 12.8643
upperneck 32.734 16.6668 -8.84362
head 13.4541 7.74145 -3.4799
rclavicle 2.88238e-014 -1.19271e-015
rhumerus -35.8667 -4.42877 -85.1736
rradius 32.2211
rwrist -21.2157
rhand -18.3932 -4.03134
rfingers 7.12502
rthumb 7.89089 -33.8641
lclavicle 2.88238e-014 -1.19271e-015
lhumerus -37.1108 -15.2128 92.4532
lradius 35.8207
lwrist 5.22432
lhand -19.0827 15.3681
lfingers 7.12502
lthumb 7.22535 45.2247
rfemur -4.85683 16.1331 23.0602
rtibia 25.9687
rfoot -28.6475 -27.1757
rtoes -21.1364
lfemur -13.2564 -19.855 -19.255
ltibia 30.813
lfoot -20.1566 7.23146
ltoes -17.959
579
root 47.9754 15.4361 -1.0563 -1083.36 -67.538 1084.09
lowerback 6.61983 0.762018 2.72898
upperback 5.43633 1.02608 -0.87757
thorax 1.97157 0.560647 -2.48517
lowerneck -3.49362 11.5265 12.8272
upperneck 32.7749 16.5567 -8.80863
head 13.5511 7.68609 -3.44683
rclavicle -5.46161e-014 1.47101e-014
rhumerus -35.8148 -4.60682 -84.9625
rradius 32.6042
rwrist -21.3525
rhand -18.1214 -3.48039
rfingers 7.12502
rthumb 8.15319 -33.3031
lclavicle -5.46161e-014 1.47101e-014
lhumerus -36.6179 -15.4518 92.5555
lradius 36.0283
lwrist 5.67218
lhand -19.6455 16.133
lfingers 7.12502
lthumb 6.68208 46.0076
rfemur -4.48763 16.0822 23.1603
rtibia 25.5002
rfoot -29.405 -28.0762
rtoes -19.3664
lfemur -14.0039 -18.8832 -19.3564
ltibia 31.7946
lfoot -20.0466 7.49938
ltoes -18.9952
580
root 47.9833 15.4443 -1.077 -1083.4 -65.8258 1084.1
lowerback 6.77826 0.798491 2.95262
upperback 5.61864 1.08381 -0.902193
thorax 2.08399 0.599436 -2.64011
lowerneck -4.11899 11.3602 12.7101
upperneck 32.9338 16.2865 -8.69593
head 13.6877 7.55125 -3.39351
rclavicle -6.06293e-015 -2.5842e-015
rhumerus -35.6768 -4.74679 -84.7002
rradius 32.7379
rwrist -21.2865
rhand -18.0387 -0.660651
rfingers 7.12502
rthumb 8.23297 -30.4802
lclavicle -6.06293e-015 -2.5842e-015
lhumerus -36.1864 -15.4384 92.6066
lradius 36.2549
lwrist 6.17039
lhand -20.5588 16.8925
lfingers 7.12502
lthumb 5.80033 46.7931
rfemur -4.02607 15.7598 23.2331
rtibia 25.0003
rfoot -30.2988 -28.8769
rtoes -17.5825
lfemur -14.6634 -18.008 -19.577
ltibia 32.7993
lfoot -19.902 7.71683
ltoes -17.6507
581
root 47.9899 15.4522 -1.09804 -1082.96 -64.0982 1083.53
lowerback 6.9827 0.79366 3.40501
upperback 5.762 1.10049 -0.880375
thorax 2.1335 0.62352 -2.87491
lowerneck -4.69289 11.1991 12.591
upperneck 33.1677 16.0014 -8.49811
head 13.8379 7.41836 -3.31372
rclavicle -3.42904e-015 1.33186e-014
rhumerus -35.6028 -4.48885 -84.7483
rradius 32.6043
rwrist -21.5633
rhand -18.5037 -1.5673
rfingers 7.12502
rthumb 7.78421 -31.404
lclavicle -3.42904e-015 1.33186e-014
lhumerus -35.8774 -15.2897 92.5237
lradius 36.5591
lwrist 6.28846
lhand -21.4424 17.3253
lfingers 7.12502
lthumb 4.94721 47.2475
rfemur -3.52274 15.407 23.602
rtibia 24.5186
rfoot -31.4206 -29.5687
rtoes -15.6309
lfemur -15.226 -16.7423 -19.5937
ltibia 33.7895
lfoot -19.8118 8.08305
ltoes -15.2095
582
root 47.9724 15.4675 -1.14319 -1081.95 -63.2655 1082.79
lowerback 6.71293 1.13992 3.37778
upperback 5.74055 1.55446 -0.763675
thorax 2.29031 0.852283 -2.75361
lowerneck -5.24138 11.043 12.4932
upperneck 33.5126 15.692 -8.20051
head 14.0244 7.2867 -3.20514
rclavicle 2.87244e-014 -1.35174e-014
rhumerus -35.606 -4.26631 -84.8433
rradius 32.7501
rwrist -21.4112
rhand -19.0503 -1.60056
rfingers 7.12502
rthumb 7.25657 -31.4561
lclavicle 2.87244e-014 -1.35174e-014
lhumerus -35.6946 -15.0683 92.3018
lradius 36.8594
lwrist 6.38348
lhand -21.6691 16.8336
lfingers 7.12502
lthumb 4.72825 46.7608
rfemur -3.55418 15.5858 24.193
rtibia 24.1483
rfoot -32.0616 -30.3201
rtoes -14.7588
lfemur -16.0221 -13.6468 -19.1831
ltibia 34.742
lfoot -20.2656 8.47339
ltoes -15.5584
583
root 47.9485 15.4768 -1.1839 -1081.28 -62.4596 1082.49
lowerback 6.31279 1.53871 3.14221
upperback 5.69843 2.06821 -0.710402
thorax 2.49369 1.10618 -2.57581
lowerneck -5.81465 10.8704 12.3875
upperneck 33.8968 15.3399 -7.84897
head 14.2257 7.14192 -3.08023
rclavicle 1.90833e-014 -1.76918e-014
rhumerus -35.6021 -4.35483 -84.8064
rradius 32.5759
rwrist -21.5476
rhand -19.2996 -3.21131
rfingers 7.12502
rthumb 7.01599 -33.075
lclavicle 1.90833e-014 -1.76918e-014
lhumerus -35.5219 -14.9175 92.0323
lradius 37.0307
lwrist 6.63983
lhand -21.354 15.8565
lfingers 7.12502
lthumb 5.03258 45.7767
rfemur -3.69873 15.5686 24.531
rtibia 23.862
rfoot -32.472 -31.0228
rtoes -14.2809
lfemur -16.7759 -10.3153 -19.068
ltibia 35.626
lfoot -20.7807 9.35338
ltoes -17.0353
584
root 47.9496 15.4701 -1.19064 -1081.37 -60.2788 1082.46
lowerback 6.45025 1.40934 3.46825
upperback 5.8016 1.91365 -0.775042
thorax 2.53058 1.04347 -2.82231
lowerneck -5.99309 10.7941 12.4435
upperneck 33.8533 15.2319 -7.8495
head 14.2348 7.10718 -3.09572
rclavicle 6.60959e-015 -4.96962e-015
rhumerus -35.5724 -4.64177 -84.6211
rradius 32.4237
rwrist -21.3959
rhand -19.3345 -3.26009
rfingers 7.12502
rthumb 6.98226 -33.1249
lclavicle 6.60959e-015 -4.96962e-015
lhumerus -35.2905 -14.9135 91.8631
lradius 37.0742
lwrist 6.73087
lhand -20.9288 15.0239
lfingers 7.12502
lthumb 5.44313 44.934
rfemur -3.33185 14.4185 24.5751
rtibia 23.6867
rfoot -33.4004 -31.5564
rtoes -12.5609
lfemur -17.1773 -8.95964 -19.6062
ltibia 36.4392
lfoot -20.8632 11.2824
ltoes -16.7755
585
root 47.9424 15.4678 -1.19763 -1081.49 -58.144 1082.58
lowerback 6.42951 1.31044 3.62179
upperback 5.84761 1.79157 -0.868728
thorax 2.59049 0.99281 -2.99983
lowerneck -5.53674 10.7897 12.8567
upperneck 33.3164 15.3531 -8.32587
head 14.001 7.19255 -3.34691
rclavicle 4.99943e-014 -9.54166e-015
rhumerus -35.6745 -4.94263 -84.5106
rradius 32.4493
rwrist -21.192
rhand -19.347 -2.78079
rfingers 7.12502
rthumb 6.97024 -32.646
lclavicle 4.99943e-014 -9.54166e-015
lhumerus -35.1738 -15.1264 91.7747
lradius 37.1031
lwrist 6.729
lhand -20.8279 14.9318
lfingers 7.12502
lthumb 5.54054 44.8394
rfemur -3.10982 13.4278 24.5604
rtibia 23.6705
rfoot -34.4776 -32.0903
rtoes -10.7913
lfemur -17.5701 -7.47705 -20.255
ltibia 37.1561
lfoot -21.1496 13.3061
ltoes -15.6965
586
root 47.9253 15.4677 -1.19993 -1081.49 -56.2089 1082.6
lowerback 6.24985 1.3497 3.84597
upperback 5.89573 1.85211 -1.03724
thorax 2.7614 1.04059 -3.2969
lowerneck -5.33744 10.6842 13.3126
upperneck 32.9803 15.2419 -8.60695
head 13.867 7.19059 -3.55492
rclavicle 1.88845e-014 -1.05356e-014
rhumerus -35.776 -5.44286 -84.5532
rradius 32.5162
rwrist -21.3687
rhand -19.0806 -1.46607
rfingers 7.12502
rthumb 7.22737 -31.3226
lclavicle 1.88845e-014 -1.05356e-014
lhumerus -34.9753 -15.4913 91.4549
lradius 37.0334
lwrist 7.46212
lhand -20.3487 14.2401
lfingers 7.12502
lthumb 6.00318 44.135
rfemur -2.95102 12.5763 24.6391
rtibia 23.7654
rfoot -35.7033 -32.5197
rtoes -9.06605
lfemur -17.8618 -5.52597 -20.8392
ltibia 37.7919
lfoot -21.9653 15.0156
ltoes -14.1881
